<svg width="25" height="36" viewBox="0 0 25 36" fill="none" xmlns="http://www.w3.org/2000/svg">
<rect y="6" width="25" height="25" rx="3" fill="#FF0000"/>
<path d="M16.5149 12.6364V16.0455H6.66051V12.6364H16.5149ZM8.89773 8.71591H13.4361V23.9716C13.4361 24.3906 13.5 24.7173 13.6278 24.9517C13.7557 25.179 13.9332 25.3388 14.1605 25.4311C14.3949 25.5234 14.6648 25.5696 14.9702 25.5696C15.1832 25.5696 15.3963 25.5518 15.6094 25.5163C15.8224 25.4737 15.9858 25.4418 16.0994 25.4205L16.8132 28.7976C16.5859 28.8686 16.2663 28.9503 15.8544 29.0426C15.4425 29.142 14.9418 29.2024 14.3523 29.2237C13.2585 29.2663 12.2997 29.1207 11.4759 28.7869C10.6591 28.4531 10.0234 27.9347 9.56889 27.2315C9.11435 26.5284 8.89063 25.6406 8.89773 24.5682V8.71591Z" fill="#3A3184"/>
<circle cx="22" cy="27" r="2" fill="white"/>
<path d="M25 9C1.06395 13.2811 1 26.5 5.49998 30C-1.5 19 16 10.5 25 12.5676V9Z" fill="#3A3184"/>
</svg>
